<?xml version="1.0" standalone="no"?>
<!DOCTYPE svg PUBLIC "-//W3C//DTD SVG 20010904//EN"
 "http://www.w3.org/TR/2001/REC-SVG-20010904/DTD/svg10.dtd">
<svg version="1.0" xmlns="http://www.w3.org/2000/svg"
 width="484.000000pt" height="484.000000pt" viewBox="0 0 484.000000 484.000000"
 preserveAspectRatio="xMidYMid meet">
<g transform="translate(0.000000,484.000000) scale(0.100000,-0.100000)"
fill="#000000" stroke="none">
<path d="M2258 4235 c-1 -1 -32 -6 -68 -9 -99 -10 -144 -18 -155 -26 -5 -5
-26 -11 -45 -14 -49 -9 -53 -11 -68 -20 -7 -4 -20 -2 -29 6 -10 7 -14 8 -10 1
5 -7 -17 -18 -63 -32 -46 -14 -68 -26 -64 -33 4 -6 3 -8 -3 -5 -5 3 -38 -8
-73 -24 -34 -17 -68 -32 -74 -33 -6 -1 -27 -11 -46 -21 -19 -11 -39 -18 -43
-17 -5 1 -6 -1 -3 -6 3 -5 -15 -17 -39 -27 -25 -10 -42 -21 -40 -25 3 -5 -7
-12 -23 -18 -15 -5 -48 -28 -74 -51 -25 -22 -51 -41 -56 -41 -6 0 -21 -13 -35
-29 -14 -17 -27 -28 -29 -26 -4 4 -172 -165 -209 -211 -13 -16 -33 -43 -44
-58 -11 -15 -28 -37 -37 -48 -10 -12 -18 -25 -18 -30 0 -5 -5 -6 -12 -2 -6 4
-8 3 -5 -3 4 -6 -5 -23 -18 -37 -14 -15 -25 -35 -25 -44 0 -9 -9 -28 -20 -42
-11 -14 -20 -30 -20 -35 0 -6 -6 -17 -12 -23 -7 -7 -13 -16 -14 -20 0 -4 -8
-23 -16 -42 -9 -19 -16 -39 -16 -44 0 -5 -4 -12 -9 -15 -5 -3 -17 -28 -27 -56
-10 -27 -25 -60 -33 -73 -7 -12 -11 -27 -8 -32 3 -5 1 -19 -5 -30 -6 -12 -13
-31 -16 -43 -2 -12 -10 -49 -18 -82 -43 -173 -53 -458 -23 -655 3 -19 9 -62
13 -95 4 -33 11 -63 15 -66 5 -3 10 -18 11 -35 1 -33 27 -117 57 -186 11 -25
17 -49 14 -52 -4 -3 0 -6 7 -6 7 0 10 -3 7 -7 -4 -3 0 -15 10 -25 9 -10 13
-18 10 -18 -3 0 9 -29 28 -64 18 -35 31 -67 27 -72 -4 -4 -1 -4 5 0 8 4 13 1
13 -7 0 -8 7 -20 15 -27 9 -7 13 -15 11 -18 -3 -2 6 -19 19 -37 14 -17 22 -35
17 -40 -4 -5 -1 -5 6 -1 7 4 12 2 12 -5 0 -6 12 -22 26 -35 14 -13 23 -28 20
-33 -3 -5 1 -12 10 -15 9 -3 12 -11 8 -18 -4 -7 -4 -10 1 -6 10 9 41 -32 37
-47 -2 -5 -1 -7 3 -3 10 9 34 -15 27 -26 -3 -5 0 -6 5 -3 6 4 18 -4 27 -18 15
-23 106 -115 139 -140 7 -5 35 -29 62 -53 68 -59 75 -64 75 -55 0 4 4 3 8 -3
10 -15 159 -114 172 -114 12 0 62 -30 71 -44 4 -5 15 -6 24 -2 15 5 16 4 5 -9
-11 -13 -10 -14 4 -9 9 4 16 1 16 -6 0 -7 8 -10 20 -7 11 3 20 1 20 -5 0 -5 4
-7 9 -3 5 3 12 1 16 -5 3 -5 13 -10 22 -10 9 0 28 -10 42 -22 21 -19 23 -19
11 -3 -15 19 -15 19 13 2 15 -10 27 -15 27 -12 0 4 12 -1 28 -9 39 -21 90 -36
126 -37 27 0 28 -2 11 -10 -16 -8 -15 -8 8 -4 16 3 52 -1 80 -8 29 -8 59 -15
67 -15 37 0 110 -11 121 -17 8 -6 10 -4 4 6 -6 11 -5 12 6 2 16 -16 304 -19
294 -4 -3 6 3 10 12 9 28 -1 145 11 173 18 14 3 33 6 42 6 10 -1 20 3 23 9 4
5 19 9 34 9 15 0 52 8 82 17 30 9 57 16 62 15 4 -1 7 3 7 8 0 6 4 10 9 10 5 0
22 5 38 12 15 6 34 10 41 9 6 -1 12 3 12 9 0 5 3 9 8 9 21 -4 41 3 62 21 12
11 26 17 30 15 5 -3 10 0 12 5 2 6 10 12 18 14 25 4 90 39 90 48 0 4 7 8 15 8
8 0 15 5 15 12 0 6 3 9 6 5 4 -3 12 -1 20 6 33 29 44 37 53 37 10 0 36 19 67
48 8 7 14 11 14 7 0 -6 15 5 51 37 10 10 24 18 31 18 6 0 9 3 5 6 -7 7 56 64
72 64 6 0 11 9 11 20 0 11 5 20 10 20 10 0 27 18 134 134 64 71 171 238 234
367 34 70 62 131 62 137 0 5 9 31 19 58 32 83 64 207 63 244 -1 27 1 32 9 20
9 -12 10 -11 6 7 -3 11 2 63 10 115 14 87 13 353 -1 415 -2 11 -7 43 -11 70
-12 92 -57 269 -86 337 -16 37 -29 74 -29 81 0 14 -60 136 -71 145 -4 3 -14
21 -23 40 -33 70 -55 106 -70 119 -9 8 -16 19 -16 26 0 7 -7 15 -15 19 -8 3
-15 12 -15 21 0 8 -4 15 -9 15 -6 0 -20 18 -32 40 -12 21 -26 37 -31 34 -4 -3
-8 1 -8 8 0 14 -175 198 -189 198 -4 0 -18 13 -31 30 -12 16 -26 27 -31 25 -4
-3 -15 5 -23 17 -9 12 -16 19 -16 15 0 -4 -23 14 -50 40 -28 26 -56 48 -63 48
-16 0 -97 47 -97 56 0 4 -16 10 -35 13 -19 4 -35 11 -35 15 0 8 -69 42 -83 41
-4 0 -20 6 -37 15 -16 8 -39 15 -52 15 -19 0 -20 2 -8 10 11 7 5 10 -22 10
-21 0 -38 4 -38 10 0 5 -18 13 -40 16 -22 4 -37 10 -35 14 3 5 -4 6 -15 3 -12
-3 -20 0 -20 6 0 7 -4 10 -9 7 -5 -3 -30 1 -57 8 -56 16 -118 27 -184 32 -69
5 -388 13 -392 9z m517 -54 c441 -94 816 -330 1088 -688 112 -146 213 -339
269 -508 60 -185 88 -360 88 -557 0 -220 -29 -399 -95 -593 -39 -114 -132
-308 -145 -300 -5 3 -7 0 -5 -8 6 -13 -76 -143 -142 -227 -81 -101 -261 -268
-378 -349 -65 -46 -126 -86 -135 -89 -8 -3 -40 -20 -70 -38 -83 -48 -272 -120
-390 -149 -421 -102 -831 -60 -1215 124 -528 254 -897 735 -1000 1306 -23 123
-31 385 -16 515 60 524 347 992 794 1292 217 146 520 261 745 284 37 3 69 8
72 11 3 3 102 3 220 0 165 -4 238 -10 315 -26z m670 -251 c10 -11 16 -20 13
-20 -3 0 -13 9 -23 20 -10 11 -16 20 -13 20 3 0 13 -9 23 -20z"/>
<path d="M2225 4161 c-27 -5 -68 -11 -90 -14 -264 -41 -539 -160 -775 -338
-262 -196 -484 -496 -590 -794 -181 -513 -124 -1059 160 -1515 99 -161 253
-334 403 -454 191 -152 425 -266 682 -332 222 -56 501 -59 770 -8 261 50 591
216 793 399 56 50 77 63 87 55 9 -7 16 -6 24 4 8 10 9 16 1 21 -6 4 -9 3 -8
-2 3 -8 -5 -13 -18 -13 -6 0 38 54 106 130 159 179 306 476 364 735 54 245 55
536 2 760 -2 11 -9 40 -15 65 -41 180 -157 420 -286 595 -72 98 -260 293 -272
281 -4 -4 7 -20 25 -35 17 -15 32 -32 32 -37 0 -5 -5 -2 -11 6 -9 13 -10 13
-6 0 2 -8 10 -15 18 -15 7 0 28 -16 46 -36 33 -37 43 -56 21 -43 -7 4 -8 3 -4
-4 4 -6 12 -9 19 -6 15 5 55 -37 50 -53 -2 -6 1 -15 8 -19 8 -5 10 -3 4 7 -4
8 1 5 12 -6 11 -11 18 -25 16 -31 -2 -5 6 -19 18 -30 14 -12 19 -13 14 -4 -4
8 -4 12 0 7 10 -9 16 -32 17 -62 0 -11 2 -14 5 -7 3 6 8 12 13 12 9 0 23 -39
20 -55 -1 -5 2 -7 5 -3 11 11 43 -34 40 -55 -2 -9 0 -15 4 -12 8 5 36 -43 43
-75 2 -8 11 -23 21 -34 10 -11 15 -26 12 -34 -2 -7 0 -10 5 -7 14 9 12 -8 -2
-24 -10 -10 -10 -12 -1 -7 12 7 47 -46 37 -56 -3 -3 5 -22 16 -41 12 -20 19
-41 15 -47 -3 -5 -1 -10 6 -10 6 0 9 -8 6 -20 -3 -11 -1 -18 4 -14 5 3 9 1 9
-5 0 -5 -5 -13 -12 -17 -7 -5 -5 -11 7 -21 11 -7 15 -13 11 -13 -5 0 -3 -6 3
-14 8 -10 10 -32 7 -63 -5 -36 -4 -43 4 -28 8 16 9 13 4 -14 -3 -19 -2 -31 3
-28 5 3 9 -2 10 -11 0 -9 4 -46 9 -82 16 -139 -5 -492 -28 -459 -6 10 -7 6 -2
-11 4 -14 6 -29 6 -35 -1 -5 -3 -20 -5 -32 -2 -13 -6 -26 -10 -29 -4 -4 -7
-16 -7 -26 0 -13 -4 -17 -12 -12 -8 5 -7 0 2 -11 12 -15 12 -17 1 -10 -11 6
-13 4 -8 -9 4 -9 1 -31 -6 -49 -8 -18 -12 -38 -9 -46 3 -8 0 -11 -7 -7 -7 5
-11 -3 -11 -23 0 -17 -5 -31 -12 -31 -6 0 -8 -3 -5 -6 9 -9 -12 -46 -22 -40
-4 3 -8 -1 -8 -9 0 -8 4 -12 9 -9 4 3 5 -2 2 -10 -3 -9 -10 -13 -15 -10 -5 3
-6 -2 -3 -10 4 -11 0 -16 -12 -17 -11 0 -13 -3 -7 -6 10 -3 9 -11 -2 -33 -8
-15 -13 -29 -11 -31 2 -2 -5 -13 -16 -24 -19 -20 -19 -20 -13 0 5 16 5 17 -3
5 -6 -8 -8 -18 -5 -23 3 -4 -7 -26 -21 -47 -14 -22 -26 -44 -26 -50 0 -6 -8
-10 -17 -8 -13 2 -17 -3 -15 -18 2 -14 -10 -32 -35 -55 -22 -19 -29 -30 -18
-25 16 6 18 5 7 -6 -7 -7 -17 -13 -23 -13 -5 0 -9 -4 -10 -10 0 -5 -7 -17 -15
-26 -8 -9 -11 -20 -7 -25 5 -5 -3 0 -17 11 -14 11 -19 13 -12 5 16 -19 15 -33
-2 -27 -11 4 -13 1 -9 -10 5 -12 3 -14 -7 -8 -10 6 -12 4 -7 -9 4 -10 3 -15
-3 -11 -6 3 -13 -1 -16 -9 -4 -11 -12 -13 -29 -6 -19 7 -23 6 -19 -5 3 -8 9
-13 12 -12 4 1 8 -2 10 -6 2 -5 -14 -22 -34 -38 -20 -16 -34 -29 -30 -29 4 0
1 -6 -6 -14 -7 -8 -16 -12 -20 -9 -5 2 -8 -1 -8 -7 0 -6 -4 -9 -9 -6 -5 3 -11
-3 -14 -14 -3 -12 -14 -20 -25 -20 -12 0 -22 -9 -25 -22 -4 -12 -9 -19 -13
-15 -3 3 -21 -5 -39 -19 -18 -14 -39 -23 -46 -22 -7 2 -13 -4 -14 -12 0 -8 -9
-14 -18 -14 -10 1 -16 0 -13 -3 12 -12 -58 -58 -73 -49 -5 3 -11 0 -14 -7 -7
-20 -154 -87 -174 -81 -14 4 -15 4 -5 -4 11 -7 8 -11 -13 -16 -14 -4 -31 -4
-37 0 -6 4 -8 3 -5 -3 8 -13 -88 -50 -115 -45 -4 1 -23 -5 -44 -14 -30 -13
-38 -13 -45 -2 -5 7 -9 8 -9 2 0 -13 -86 -31 -215 -45 -106 -11 -346 -5 -430
10 -27 6 -57 10 -65 11 -13 0 -13 1 0 10 13 8 12 10 -2 10 -10 0 -18 -4 -18
-9 0 -4 -20 -4 -45 2 -30 7 -41 13 -33 19 9 5 10 8 1 8 -6 0 -15 -5 -19 -11
-3 -6 -9 -7 -13 -2 -9 13 -61 34 -71 28 -5 -3 -24 3 -42 13 -18 10 -39 17 -45
15 -7 -3 -13 0 -13 6 0 6 -3 10 -7 10 -29 -5 -53 2 -47 14 4 6 4 9 -1 5 -4 -4
-37 9 -73 29 -36 20 -62 30 -58 22 6 -11 5 -11 -6 1 -7 8 -31 25 -53 37 -22
12 -40 26 -40 32 0 5 -6 16 -14 23 -10 10 -12 10 -7 1 10 -19 -2 -16 -31 7
-14 11 -29 17 -34 14 -5 -3 -6 3 -2 12 5 13 3 16 -10 11 -10 -4 -16 -2 -14 6
1 7 -6 11 -15 11 -10 -1 -15 2 -12 7 3 5 0 9 -6 9 -6 0 -8 5 -4 12 4 6 3 9 -2
6 -16 -10 -56 11 -51 27 4 9 1 12 -9 8 -10 -3 -12 0 -8 10 3 8 1 18 -5 22 -7
3 -8 0 -5 -9 3 -9 1 -16 -5 -16 -10 0 -15 14 -12 33 0 4 -3 6 -8 5 -21 -7
-239 231 -225 245 3 3 1 14 -6 24 -9 16 -10 15 -5 -7 l7 -25 -17 23 c-9 12
-17 31 -18 41 -1 11 -4 18 -7 16 -4 -2 -14 5 -23 16 -9 10 -12 19 -7 19 5 0 7
7 3 16 -5 13 -7 13 -14 2 -7 -10 -9 -10 -10 2 -1 8 -1 21 0 28 1 7 -6 22 -15
35 -12 16 -15 17 -10 4 3 -11 2 -16 -4 -12 -6 3 -10 15 -10 26 0 10 -3 19 -8
19 -4 0 -13 9 -19 20 -11 17 -10 18 5 13 15 -5 15 -4 1 8 -23 20 -59 87 -59
110 0 10 -5 19 -10 19 -6 0 -9 15 -7 34 3 27 1 33 -11 29 -12 -5 -11 -1 3 23
13 23 14 25 1 10 -16 -19 -16 -19 -16 2 0 12 0 25 1 28 0 4 -5 10 -13 15 -7 4
-13 14 -14 21 -2 40 -18 119 -25 123 -4 3 -6 17 -3 30 2 14 1 25 -4 25 -11 0
-9 31 3 49 5 10 4 12 -3 7 -7 -4 -13 -4 -13 1 -8 53 -7 63 4 56 9 -5 9 -3 1 8
-10 13 -16 74 -14 159 0 19 0 56 0 82 0 26 5 50 10 53 6 3 10 12 10 18 0 7 -4
6 -10 -3 -8 -13 -10 -13 -10 2 0 9 6 19 13 21 9 4 8 6 -2 6 -11 1 -10 6 5 23
19 22 19 22 -1 8 -19 -15 -19 -15 -1 14 10 16 13 25 7 22 -15 -10 -14 7 1 22
9 9 9 12 0 12 -8 0 -9 7 -3 23 5 12 15 49 22 81 7 32 22 67 33 77 11 10 16 22
13 26 -4 3 -7 1 -7 -5 0 -7 -4 -12 -9 -12 -4 0 -6 11 -3 25 2 14 11 25 20 25
12 0 13 3 5 11 -6 6 -8 20 -5 31 4 15 7 17 14 6 7 -9 8 -8 4 5 -4 11 5 40 19
69 14 27 23 53 21 57 -3 3 4 18 15 31 16 21 18 22 13 5 -5 -16 -4 -17 4 -5 7
8 7 19 2 25 -9 11 27 78 38 71 4 -2 8 7 9 21 0 14 6 30 13 37 8 8 9 6 4 -9 -7
-17 -6 -18 8 -5 11 11 13 17 4 23 -8 5 -6 11 7 18 9 6 15 14 12 19 -3 6 5 22
19 37 15 15 26 31 26 36 0 4 4 6 9 2 5 -3 13 0 17 6 4 8 3 9 -4 5 -21 -13 -13
7 15 36 25 26 51 39 39 20 -3 -5 1 -9 9 -9 13 0 13 2 1 16 -12 13 -12 19 -2
33 7 10 17 14 21 10 5 -4 5 -1 1 6 -4 7 -1 15 8 18 9 3 13 11 9 17 -3 5 -1 7
5 3 14 -8 44 23 35 37 -4 7 2 5 12 -3 11 -9 16 -10 11 -2 -10 17 17 42 34 32
21 -13 32 -1 20 20 -12 23 -13 33 -1 26 5 -4 18 5 28 19 11 16 30 27 48 29 22
2 30 9 30 22 0 11 14 26 35 38 19 10 37 22 38 27 2 5 8 7 13 3 5 -3 8 0 7 7
-2 7 6 15 17 17 11 2 25 9 30 14 7 8 6 8 -4 3 -10 -6 -12 -4 -7 4 6 9 11 9 24
-1 14 -11 15 -10 9 6 -6 14 -4 17 8 12 9 -3 13 -2 10 4 -3 6 -1 10 6 10 6 0
33 13 58 28 25 16 54 28 63 26 10 -1 16 3 15 9 -1 6 8 13 21 15 12 2 22 8 22
14 0 6 9 8 20 5 11 -3 20 -2 20 2 0 11 80 44 118 48 24 3 31 0 26 -8 -4 -8 -3
-9 5 -5 6 4 9 11 6 15 -6 11 41 31 100 42 28 5 61 12 75 15 14 3 43 5 65 5 31
0 35 2 20 9 -14 5 1 8 45 9 36 0 85 2 110 4 25 2 51 -1 58 -6 8 -6 12 -5 12 2
0 6 5 11 11 11 5 0 8 -4 5 -8 -3 -5 1 -9 9 -9 8 0 12 3 10 6 -2 3 25 6 60 6
35 0 61 -3 59 -7 -3 -4 2 -5 10 -2 8 3 30 1 49 -4 24 -7 39 -6 46 1 7 7 11 8
11 1 0 -6 12 -10 28 -9 15 1 43 -4 64 -11 20 -7 38 -11 41 -8 2 2 23 -2 46
-10 44 -16 43 -16 66 -16 9 0 12 -6 9 -15 -5 -11 -2 -13 9 -9 9 3 22 2 29 -2
7 -5 24 -9 38 -10 14 -1 26 -3 28 -4 1 -1 5 -3 10 -5 53 -15 132 -57 125 -68
-3 -5 4 -6 16 -2 13 4 21 2 21 -5 0 -6 5 -8 11 -4 6 3 14 3 18 -2 3 -5 20 -17
36 -26 17 -10 29 -25 28 -34 -1 -11 2 -13 9 -6 11 11 48 4 48 -9 0 -5 3 -8 8
-7 11 3 52 -26 52 -37 0 -6 14 -16 30 -23 17 -8 28 -18 24 -23 -3 -5 -1 -8 4
-7 15 5 73 -42 67 -53 -4 -5 -2 -9 3 -9 6 0 12 7 15 15 12 31 -192 175 -368
260 -166 80 -348 136 -515 159 -75 11 -392 15 -445 7z m-875 -401 c0 -5 -2
-10 -4 -10 -3 0 -8 5 -11 10 -3 6 -1 10 4 10 6 0 11 -4 11 -10z m-107 -94 c4
-10 1 -13 -9 -9 -7 3 -14 9 -14 14 0 14 17 10 23 -5z m2577 -216 c0 -5 -2 -10
-4 -10 -3 0 -8 5 -11 10 -3 6 -1 10 4 10 6 0 11 -4 11 -10z"/>
<path d="M2025 4150 c-3 -6 1 -7 9 -4 18 7 21 14 7 14 -6 0 -13 -4 -16 -10z"/>
<path d="M2865 4070 c27 -12 43 -12 25 0 -8 5 -22 9 -30 9 -10 0 -8 -3 5 -9z"/>
<path d="M3248 3893 c7 -3 16 -2 19 1 4 3 -2 6 -13 5 -11 0 -14 -3 -6 -6z"/>
<path d="M1440 3810 c-8 -5 -10 -10 -5 -10 6 0 17 5 25 10 8 5 11 10 5 10 -5
0 -17 -5 -25 -10z"/>
<path d="M3475 3730 c-3 -6 1 -7 9 -4 18 7 21 14 7 14 -6 0 -13 -4 -16 -10z"/>
<path d="M3705 3540 c3 -5 8 -10 11 -10 2 0 4 5 4 10 0 6 -5 10 -11 10 -5 0
-7 -4 -4 -10z"/>
<path d="M3846 3328 c3 -5 10 -6 15 -3 13 9 11 12 -6 12 -8 0 -12 -4 -9 -9z"/>
<path d="M865 3109 c-4 -6 -5 -12 -2 -15 2 -3 7 2 10 11 7 17 1 20 -8 4z"/>
<path d="M2525 3093 c-337 -5 -252 -18 150 -23 l380 -5 68 -33 c194 -96 275
-314 187 -507 -40 -88 -89 -139 -175 -181 -71 -35 -78 -37 -209 -42 l-136 -5
0 117 0 116 114 0 c101 0 117 2 146 23 46 30 72 78 72 131 0 54 -20 93 -64
126 -33 25 -33 25 -293 28 -257 3 -260 3 -280 26 -106 122 -135 154 -164 183
-33 32 -65 47 -42 19 7 -8 8 -16 4 -18 -4 -3 -3 -4 2 -3 6 2 22 -9 35 -24 14
-14 21 -23 15 -19 -5 5 -14 8 -20 8 -5 0 -2 -5 8 -11 15 -9 16 -13 5 -27 -12
-15 -11 -16 4 -4 13 10 22 11 37 2 20 -10 29 -23 13 -17 -4 1 -7 -2 -7 -8 0
-5 4 -9 9 -7 4 1 18 -9 30 -23 11 -14 34 -41 51 -60 l30 -35 247 0 c234 0 307
-7 293 -29 -3 -6 3 -8 15 -6 11 2 19 1 19 -3 -1 -4 -1 -16 0 -27 1 -17 3 -18
11 -5 10 15 10 14 15 -52 0 -9 4 -20 8 -24 4 -4 7 -12 7 -18 0 -6 -5 -4 -11 4
-8 12 -9 10 -4 -8 8 -28 -45 -82 -82 -82 -13 0 -22 -4 -19 -8 2 -4 -43 -9
-101 -11 -72 -1 -103 1 -98 8 4 7 0 8 -10 4 -10 -3 -21 0 -26 8 -6 10 -9 11
-9 1 0 -7 9 -16 21 -20 18 -7 19 -10 6 -20 -11 -9 -13 -34 -11 -114 3 -70 1
-98 -6 -88 -8 12 -10 12 -10 1 0 -7 10 -22 22 -33 21 -18 36 -19 165 -17 78 2
140 6 137 11 -3 4 2 8 10 8 9 0 31 9 51 20 19 11 42 17 50 14 8 -4 15 -2 15 2
0 5 7 18 15 28 12 16 17 17 30 6 8 -7 15 -11 16 -9 8 39 7 40 -9 27 -9 -7 0 5
21 26 20 22 37 46 37 53 0 8 5 11 11 7 7 -4 9 0 5 14 -4 13 0 26 11 38 36 35
38 231 5 308 -19 42 -20 47 -4 35 9 -7 -2 7 -26 31 -24 25 -41 49 -38 57 3 8
1 11 -4 8 -14 -9 -12 8 3 25 6 8 2 6 -10 -3 -16 -14 -23 -15 -29 -6 -4 8 -3
10 4 5 7 -4 12 -2 12 4 0 7 -7 10 -15 6 -8 -3 -20 3 -28 14 -8 11 -17 17 -20
13 -4 -3 -7 -1 -7 5 0 7 -6 12 -13 12 -7 0 -22 7 -33 15 -19 15 -19 15 1 8 11
-3 17 -3 13 1 -19 22 -269 33 -623 29z m685 -727 c0 -2 -8 -10 -17 -17 -16
-13 -17 -12 -4 4 13 16 21 21 21 13z"/>
<path d="M2062 3081 c-8 -4 -24 -7 -36 -6 -14 2 -23 -3 -23 -11 0 -10 4 -11
11 -4 14 14 31 13 18 -2 -6 -7 -11 -17 -12 -23 -1 -5 -6 -9 -10 -8 -4 1 -6 -7
-3 -17 3 -11 0 -20 -6 -20 -6 0 -11 -5 -11 -11 0 -6 -11 -33 -24 -59 -13 -27
-22 -51 -19 -54 4 -3 1 -6 -6 -6 -7 0 -9 -4 -6 -10 3 -5 2 -10 -4 -10 -5 0
-17 -23 -26 -51 -13 -37 -20 -48 -26 -38 -6 9 -7 4 -3 -15 5 -20 4 -27 -4 -22
-8 5 -10 1 -5 -10 4 -12 3 -15 -5 -10 -8 5 -10 2 -6 -8 3 -9 2 -16 -3 -16 -6
0 -16 -19 -23 -42 -7 -24 -18 -47 -23 -53 -7 -7 -8 -4 -4 8 4 11 3 16 -4 12
-6 -4 -8 -13 -5 -20 2 -7 -6 -34 -20 -61 -13 -26 -24 -53 -24 -61 0 -7 -5 -13
-11 -13 -6 0 -8 -7 -5 -16 3 -8 2 -12 -4 -9 -6 3 -10 -1 -10 -9 0 -23 -22 -66
-31 -60 -4 2 -6 -4 -4 -16 2 -11 0 -22 -6 -25 -5 -4 -9 -15 -9 -27 0 -15 -3
-18 -12 -10 -10 8 -14 2 -16 -26 -1 -20 -7 -41 -13 -47 -7 -7 -8 -4 -4 10 5
15 4 16 -3 6 -5 -7 -7 -22 -5 -32 3 -11 0 -19 -6 -19 -7 0 -10 -4 -6 -9 3 -5
1 -12 -5 -16 -5 -3 -10 -16 -10 -28 0 -18 -2 -20 -11 -7 -9 13 -10 12 -5 -2 6
-20 -17 -71 -28 -61 -4 4 -4 -1 0 -11 5 -13 4 -17 -4 -12 -8 5 -10 2 -6 -8 3
-9 1 -16 -5 -16 -6 0 -11 -9 -11 -19 0 -11 -4 -23 -10 -26 -17 -11 -11 -43 12
-59 12 -9 26 -12 32 -8 6 5 63 8 127 7 l116 -1 -2 29 c-1 18 5 31 16 38 10 5
16 16 13 23 -3 8 0 17 5 21 6 3 9 10 6 15 -3 5 -1 11 5 15 5 3 10 16 10 28 0
16 3 18 9 9 6 -10 10 -6 14 15 9 39 22 57 37 48 9 -6 9 -9 -1 -16 -11 -7 -11
-9 1 -9 13 0 13 -1 0 -10 -13 -8 -13 -10 3 -11 9 -1 22 -3 27 -4 6 -1 21 -3
35 -4 18 -1 23 -5 19 -18 -5 -15 -4 -15 4 -4 13 18 94 24 104 8 3 -6 14 -12
22 -13 9 -1 14 2 10 7 -3 5 -10 7 -15 4 -5 -4 -9 -2 -9 3 0 5 52 8 116 8 109
-2 117 -3 125 -23 4 -11 13 -24 19 -28 6 -4 8 -15 5 -25 -4 -13 1 -23 13 -31
11 -7 18 -19 15 -26 -3 -7 0 -13 7 -13 6 0 8 -4 5 -10 -3 -5 -1 -10 5 -10 6 0
9 -4 6 -8 -3 -5 57 -8 134 -8 76 1 136 4 134 7 -2 4 4 10 14 14 15 6 16 8 1
18 -9 7 -16 15 -17 20 -1 4 -11 29 -23 55 -25 54 -33 102 -18 102 6 0 7 -4 4
-10 -3 -5 -1 -10 6 -10 7 0 10 -3 6 -6 -3 -4 0 -13 8 -21 8 -8 15 -24 15 -36
0 -16 3 -18 12 -9 8 8 9 17 1 34 -7 13 -53 111 -104 218 l-93 195 -6 138 c-3
75 -3 137 0 137 3 0 30 -22 60 -48 31 -26 79 -65 108 -87 l52 -39 0 -269 c0
-214 -3 -274 -14 -296 -13 -23 -13 -28 -1 -28 8 0 12 4 9 9 -3 5 2 21 12 36
15 23 17 47 16 149 -2 91 1 123 10 123 9 0 9 3 0 12 -16 16 -15 58 1 58 9 0 9
2 1 8 -14 8 -13 149 0 171 6 9 5 12 -1 8 -6 -4 -14 4 -17 18 -4 14 -11 25 -17
25 -6 0 -7 5 -4 10 4 6 3 9 -2 8 -13 -4 -83 46 -83 60 0 7 -4 10 -10 7 -5 -3
-10 -2 -10 4 0 5 -13 18 -30 28 -16 9 -30 23 -30 30 0 6 -5 15 -12 19 -6 4 -8
3 -5 -4 5 -6 -1 -8 -14 -5 -16 4 -17 8 -7 14 9 6 9 9 1 9 -7 0 -17 -8 -22 -18
-12 -22 -20 -271 -9 -278 4 -3 8 -13 8 -22 0 -9 10 -33 22 -52 12 -19 22 -37
23 -40 0 -3 9 -19 18 -37 10 -20 13 -34 7 -38 -6 -3 -10 -12 -9 -18 0 -9 2 -9
6 1 2 6 9 12 14 12 5 0 9 -6 9 -12 0 -7 7 -26 15 -41 10 -19 10 -26 2 -21 -7
3 -2 -3 10 -13 25 -21 37 -71 23 -93 -8 -12 -10 -10 -11 10 -1 14 -2 33 -1 43
1 9 -3 17 -8 17 -6 0 -10 -6 -11 -12 -1 -19 -21 44 -20 66 0 10 -3 16 -6 12
-9 -8 -32 26 -33 47 0 12 4 16 13 11 7 -4 9 -3 4 2 -5 5 -13 10 -18 10 -5 1
-12 2 -15 3 -4 0 0 9 7 18 8 9 10 14 4 11 -5 -3 -16 0 -23 8 -12 14 -8 19 13
14 6 -1 6 2 2 7 -5 4 -14 8 -20 8 -7 0 -13 6 -13 13 -1 6 -2 17 -3 23 0 5 -6
7 -13 3 -7 -4 -8 -3 -4 4 4 7 2 12 -4 12 -7 0 -7 7 1 23 11 19 10 20 -3 9 -13
-11 -16 -9 -20 12 -3 14 -1 31 3 38 7 10 9 10 9 -1 0 -8 3 -12 6 -8 3 3 3 11
-1 17 -5 8 -10 8 -21 0 -11 -10 -17 -4 -30 29 -9 22 -15 43 -14 47 1 4 -4 11
-12 15 -10 7 -10 9 0 9 7 0 10 5 7 10 -4 6 -10 8 -15 5 -5 -3 -12 7 -16 22 -4
15 -20 52 -35 81 -15 29 -24 50 -20 48 4 -3 7 11 5 32 -4 57 -4 58 -13 43 -6
-9 -6 -22 1 -34 15 -30 3 -31 -17 -1 -9 15 -18 37 -19 49 0 13 -4 21 -8 18 -5
-2 -8 3 -8 11 0 9 -5 16 -11 16 -6 0 -9 9 -6 19 3 12 -1 22 -10 25 -9 4 -13
14 -10 26 3 11 1 18 -4 14 -5 -3 -14 7 -20 23 -23 61 -84 92 -127 64z m82 -30
c9 -10 74 -141 145 -292 70 -151 153 -327 184 -392 32 -65 57 -120 57 -123 0
-2 36 -79 80 -170 44 -92 80 -167 80 -168 0 -1 -56 -1 -124 -1 l-124 0 -18 40
c-10 22 -28 64 -41 93 l-24 52 -216 0 c-118 0 -213 4 -211 8 2 5 23 54 48 111
l45 102 113 -3 c61 -2 112 0 112 5 0 4 -31 73 -70 153 -38 80 -70 150 -70 155
0 5 -4 9 -10 9 -5 0 -10 -4 -10 -10 0 -8 -105 -238 -235 -515 -26 -55 -58
-123 -70 -152 l-23 -51 -116 2 c-64 2 -118 5 -121 8 -4 4 142 321 319 692 31
65 56 120 56 121 0 2 32 69 70 149 39 79 70 149 70 155 0 15 41 41 66 41 11 0
28 -8 38 -19z m-13 -538 c17 -38 35 -69 40 -71 5 -2 4 -13 -3 -25 -10 -19 -9
-20 3 -10 12 10 15 8 16 -8 1 -12 -2 -17 -10 -13 -7 4 -8 3 -4 -2 5 -5 14 -9
20 -9 11 0 12 -5 9 -37 -2 -10 -25 -12 -91 -10 l-90 4 -25 -41 c-14 -22 -26
-45 -26 -51 0 -6 -12 -33 -26 -60 -19 -36 -30 -47 -42 -43 -10 4 -12 8 -4 11
7 2 12 12 12 22 0 9 6 23 14 30 8 6 12 19 9 28 -6 14 -4 15 8 5 13 -10 15 -8
13 17 -1 22 2 27 14 23 10 -4 13 -2 8 5 -10 16 15 83 27 75 6 -4 7 -1 3 6 -5
7 0 19 10 27 11 9 13 13 7 9 -17 -8 -16 5 1 27 7 10 16 15 20 11 4 -4 4 0 0
10 -3 9 -1 23 5 31 6 7 7 17 3 21 -4 5 -1 4 7 0 11 -6 13 -4 8 9 -4 9 -3 15 2
12 5 -3 12 10 15 29 4 19 9 35 11 35 3 0 19 -30 36 -67z"/>
<path d="M2072 3016 c-1 -20 13 -36 32 -36 6 0 1 6 -9 14 -15 11 -17 17 -7 28
9 12 9 15 -1 15 -7 0 -14 -10 -15 -21z"/>
<path d="M2105 3021 c-3 -6 3 -14 13 -20 14 -7 19 -6 19 4 0 7 -7 11 -15 7
-10 -3 -13 -1 -8 6 4 7 5 12 2 12 -3 0 -7 -4 -11 -9z"/>
<path d="M2046 2993 c-6 -14 -5 -15 5 -6 7 7 10 15 7 18 -3 3 -9 -2 -12 -12z"/>
<path d="M2111 2959 c-1 -9 7 -23 17 -30 15 -12 16 -12 6 1 -6 8 -14 22 -17
30 -5 13 -6 12 -6 -1z"/>
<path d="M2170 2900 c-6 -11 -8 -20 -6 -20 3 0 10 9 16 20 6 11 8 20 6 20 -3
0 -10 -9 -16 -20z"/>
<path d="M2170 2865 c-7 -9 -10 -18 -7 -22 4 -3 10 2 13 11 5 14 9 15 15 4 6
-9 9 -9 9 -1 0 19 -17 24 -30 8z"/>
<path d="M2053 2824 c-3 -8 -2 -19 3 -24 5 -5 9 1 9 16 0 28 -3 30 -12 8z"/>
<path d="M2019 2783 c-13 -16 -12 -17 4 -4 16 13 21 21 13 21 -2 0 -10 -8 -17
-17z"/>
<path d="M2065 2771 c-3 -5 -1 -12 5 -16 5 -3 10 1 10 9 0 18 -6 21 -15 7z"/>
<path d="M2190 2730 c0 -5 5 -10 11 -10 5 0 7 5 4 10 -3 6 -8 10 -11 10 -2 0
-4 -4 -4 -10z"/>
<path d="M2004 2719 c-3 -6 -1 -16 5 -22 9 -9 10 -7 5 7 -6 15 -4 17 6 11 9
-5 11 -4 6 3 -9 15 -13 15 -22 1z"/>
<path d="M1936 2711 c-3 -5 1 -11 9 -14 9 -4 12 -1 8 9 -6 16 -10 17 -17 5z"/>
<path d="M2041 2704 c0 -11 3 -14 6 -6 3 7 2 16 -1 19 -3 4 -6 -2 -5 -13z"/>
<path d="M2250 2709 c0 -5 5 -7 10 -4 6 3 10 8 10 11 0 2 -4 4 -10 4 -5 0 -10
-5 -10 -11z"/>
<path d="M2270 2690 c-9 -6 -10 -10 -3 -10 6 0 15 5 18 10 8 12 4 12 -15 0z"/>
<path d="M2008 2649 c-10 -10 -14 -19 -9 -19 6 0 13 5 16 10 4 6 11 8 16 5 5
-3 6 1 3 9 -3 9 -7 16 -8 15 0 0 -9 -9 -18 -20z"/>
<path d="M2130 2660 c0 -5 5 -10 11 -10 5 0 7 5 4 10 -3 6 -8 10 -11 10 -2 0
-4 -4 -4 -10z"/>
<path d="M1905 2650 c-3 -6 1 -13 9 -16 9 -3 13 -11 9 -18 -4 -6 0 -6 9 2 13
10 17 10 20 0 3 -8 6 -7 10 4 4 10 1 15 -10 15 -34 0 -43 3 -37 13 3 6 4 10 1
10 -3 0 -8 -5 -11 -10z"/>
<path d="M2140 2621 c0 -6 4 -13 10 -16 6 -3 7 1 4 9 -7 18 -14 21 -14 7z"/>
<path d="M1906 2591 c-3 -5 2 -15 12 -22 15 -12 16 -12 5 2 -7 9 -10 19 -6 22
3 4 4 7 0 7 -3 0 -8 -4 -11 -9z"/>
<path d="M1934 2574 c1 -28 4 -31 24 -28 14 3 21 1 18 -5 -4 -5 -3 -12 2 -15
4 -2 8 6 8 19 0 18 -3 22 -15 15 -12 -6 -19 -2 -27 18 l-11 27 1 -31z"/>
<path d="M2000 2590 c0 -4 6 -12 13 -18 10 -8 13 -6 13 7 0 10 -6 18 -13 18
-7 0 -13 -4 -13 -7z"/>
<path d="M2339 2583 c-5 -48 -3 -60 8 -56 8 3 10 11 4 21 -4 10 -6 23 -4 30 3
6 2 12 -1 12 -3 0 -6 -3 -7 -7z"/>
<path d="M1946 2513 c-6 -14 -5 -15 5 -6 7 7 10 15 7 18 -3 3 -9 -2 -12 -12z"/>
<path d="M1925 2450 c-3 -5 -1 -10 4 -10 6 0 11 5 11 10 0 6 -2 10 -4 10 -3 0
-8 -4 -11 -10z"/>
<path d="M1791 2404 c0 -11 3 -14 6 -6 3 7 2 16 -1 19 -3 4 -6 -2 -5 -13z"/>
<path d="M1798 2353 c10 -4 9 -9 -5 -19 -16 -13 -15 -13 10 -2 20 8 24 14 15
20 -7 4 -17 7 -23 7 -5 0 -4 -3 3 -6z"/>
<path d="M1746 2301 c1 -14 3 -30 4 -36 5 -21 0 -36 -10 -30 -6 4 -8 10 -6 14
3 4 -1 8 -9 8 -8 0 -13 -5 -12 -11 1 -6 -5 -9 -13 -8 -8 2 -12 0 -8 -4 4 -4 3
-13 -4 -21 -6 -8 -7 -13 -2 -11 9 3 14 -4 14 -23 0 -5 -4 -8 -9 -4 -5 3 -13 1
-16 -5 -4 -6 -1 -9 6 -8 7 2 13 -6 14 -17 0 -11 5 -27 10 -35 5 -8 10 -21 11
-28 2 -8 6 -17 10 -20 4 -4 4 1 1 10 -3 10 -2 20 2 23 10 6 20 -24 14 -43 -3
-6 -8 -10 -13 -7 -7 4 -7 -17 0 -35 1 -3 2 -8 1 -12 -2 -12 5 -9 19 8 8 8 9
14 4 12 -5 -2 -10 2 -12 7 -1 6 8 10 19 10 13 0 25 9 30 20 4 11 8 14 8 6 1
-16 11 -9 15 11 2 7 10 29 19 48 14 30 14 37 2 46 -8 6 -13 21 -10 32 2 13 -1
22 -8 22 -7 0 -6 4 3 10 12 8 9 9 -10 7 -30 -5 -54 21 -38 41 8 9 7 11 -6 6
-14 -5 -15 -2 -7 18 7 18 6 25 -3 25 -7 0 -11 -12 -10 -26z m44 -76 c5 3 14
-3 19 -14 8 -14 7 -22 -3 -30 -10 -8 -16 -9 -21 -1 -3 5 -1 10 5 10 7 0 6 5
-2 14 -11 13 -15 13 -26 -2 -7 -9 -15 -16 -18 -14 -2 2 -8 2 -12 -1 -4 -2 -1
-2 6 0 9 2 11 -4 7 -20 -5 -17 -4 -19 4 -7 9 12 11 11 11 -7 0 -16 -5 -21 -20
-18 -11 2 -23 -1 -26 -7 -4 -7 -2 -8 4 -4 7 4 12 1 12 -10 0 -13 -3 -14 -14
-5 -13 11 -15 59 -2 79 3 6 2 14 -4 17 -8 5 -7 11 1 21 9 11 15 11 25 3 11 -9
15 -7 20 6 6 16 8 16 16 1 5 -9 13 -14 18 -11z m-13 -32 c-11 -10 13 -32 29
-26 8 3 14 0 14 -7 0 -6 5 -8 12 -4 6 4 8 3 5 -3 -12 -20 -30 -68 -28 -76 1
-5 -3 -6 -9 -2 -6 3 -14 -4 -19 -17 -8 -21 -9 -20 -9 9 1 18 5 30 10 27 4 -3
8 0 8 6 0 7 -6 10 -12 7 -7 -2 -12 -12 -12 -21 1 -9 -2 -16 -7 -16 -5 0 -9 3
-9 8 0 4 -3 18 -6 32 -4 18 -3 21 4 12 7 -11 12 -7 20 16 8 22 7 32 0 34 -11
4 -3 28 9 28 4 0 3 -3 0 -7z"/>
<path d="M1715 2221 c-3 -5 -2 -12 3 -15 5 -3 9 1 9 9 0 17 -3 19 -12 6z"/>
<path d="M1715 2160 c3 -5 8 -10 11 -10 2 0 4 5 4 10 0 6 -5 10 -11 10 -5 0
-7 -4 -4 -10z"/>
<path d="M1778 2142 c-4 -13 -4 -21 -1 -18 4 3 12 1 18 -4 9 -8 14 -6 18 4 4
10 1 13 -8 10 -7 -3 -15 2 -17 13 -3 15 -5 14 -10 -5z"/>
<path d="M1812 2323 c-6 -3 -10 -9 -6 -14 3 -5 0 -9 -6 -9 -7 0 -5 -7 4 -16 9
-8 14 -20 10 -25 -3 -5 0 -8 7 -7 17 4 48 41 43 50 -9 13 -39 25 -52 21z m34
-41 c-14 -14 -18 -15 -25 -3 -15 24 -2 42 21 30 19 -10 19 -12 4 -27z"/>
<path d="M1720 2290 c-6 -11 -8 -20 -6 -20 3 0 10 9 16 20 6 11 8 20 6 20 -3
0 -10 -9 -16 -20z"/>
<path d="M1860 2266 c0 -2 7 -7 16 -10 8 -3 12 -2 9 4 -6 10 -25 14 -25 6z"/>
<path d="M2145 2260 c-3 -5 -4 -10 0 -10 3 0 0 -10 -6 -22 -8 -17 -8 -20 0
-12 6 6 13 20 16 32 4 23 0 28 -10 12z"/>
<path d="M2205 2250 c-4 -6 -10 -8 -15 -5 -5 3 -11 1 -14 -4 -4 -5 2 -8 11 -6
10 1 25 -4 34 -11 13 -12 16 -12 16 0 0 8 -5 14 -11 13 -6 -1 -10 4 -8 11 3
15 -4 16 -13 2z"/>
<path d="M2100 2206 c0 -11 30 -66 36 -66 2 0 -3 15 -12 33 -19 36 -24 44 -24
33z"/>
<path d="M1845 2191 c-3 -5 -2 -12 3 -15 5 -3 9 1 9 9 0 17 -3 19 -12 6z"/>
<path d="M2526 2175 c8 -37 14 -45 14 -19 0 10 -5 26 -10 34 -8 11 -9 7 -4
-15z"/>
<path d="M2171 2166 c-9 -10 -7 -17 6 -27 16 -12 17 -12 6 2 -10 12 -10 18 -1
27 7 7 9 12 6 12 -3 0 -11 -6 -17 -14z"/>
<path d="M2308 2168 c9 -9 9 -15 -1 -27 -11 -14 -10 -14 6 -2 13 10 15 17 6
27 -6 8 -14 14 -17 14 -3 0 -1 -5 6 -12z"/>
<path d="M1645 2121 c-3 -5 -2 -12 3 -15 5 -3 9 1 9 9 0 17 -3 19 -12 6z"/>
<path d="M1670 2111 c0 -6 5 -11 11 -11 5 0 8 -4 5 -9 -3 -5 2 -15 12 -22 15
-12 16 -12 5 2 -7 9 -11 18 -8 21 3 3 -1 11 -10 18 -10 8 -15 9 -15 1z"/>
<path d="M2571 2083 c1 -4 0 -11 -1 -15 -7 -21 -4 -65 3 -61 5 3 6 15 3 26 -3
12 -1 26 5 33 7 8 6 14 -1 19 -6 4 -10 3 -9 -2z"/>
<path d="M1685 1998 c6 -29 13 -34 28 -19 6 7 8 12 2 11 -21 -4 -30 1 -17 9
11 7 11 9 -1 14 -12 4 -15 0 -12 -15z"/>
<path d="M2456 2003 c-6 -14 -5 -15 5 -6 7 7 10 15 7 18 -3 3 -9 -2 -12 -12z"/>
<path d="M2589 1983 c-3 -18 -2 -38 1 -44 11 -17 17 11 10 46 l-6 30 -5 -32z"/>
<path d="M2611 1994 c0 -11 3 -14 6 -6 3 7 2 16 -1 19 -3 4 -6 -2 -5 -13z"/>
<path d="M1618 1993 c6 -2 18 -2 25 0 6 3 1 5 -13 5 -14 0 -19 -2 -12 -5z"/>
<path d="M1587 1982 c7 -4 9 -13 4 -21 -5 -7 -14 -11 -20 -7 -6 4 -9 2 -5 -7
2 -7 11 -14 19 -14 8 0 12 4 9 8 -2 4 2 14 11 22 13 13 13 16 -1 21 -22 8 -31
7 -17 -2z"/>
<path d="M1724 1969 c-3 -6 -2 -15 3 -20 5 -5 9 -1 9 11 0 23 -2 24 -12 9z"/>
<path d="M2060 2470 c-11 -7 -11 -10 -2 -10 8 0 10 -5 6 -12 -5 -9 -3 -9 9 1
9 7 14 17 11 22 -6 11 -6 11 -24 -1z"/>
<path d="M2036 2357 c3 -10 9 -15 12 -12 3 3 0 11 -7 18 -10 9 -11 8 -5 -6z"/>
<path d="M1986 2315 c-9 -26 -7 -32 5 -12 6 10 9 21 6 23 -2 3 -7 -2 -11 -11z"/>
<path d="M1929 2193 c-13 -16 -12 -17 4 -4 9 7 17 15 17 17 0 8 -8 3 -21 -13z"/>
<path d="M2655 3041 c-3 -5 0 -13 6 -17 7 -4 9 -3 5 4 -3 5 0 13 6 15 9 4 10
6 1 6 -6 1 -14 -3 -18 -8z"/>
<path d="M2689 3033 c-12 -16 -12 -17 2 -6 9 7 20 9 24 5 5 -4 5 -1 1 6 -9 16
-11 15 -27 -5z"/>
<path d="M2736 3039 c4 -8 30 -6 38 2 3 3 -5 5 -19 5 -13 0 -22 -3 -19 -7z"/>
<path d="M2796 3037 c3 -10 9 -15 12 -12 3 3 0 11 -7 18 -10 9 -11 8 -5 -6z"/>
<path d="M2386 3027 c3 -10 9 -15 12 -12 3 3 0 11 -7 18 -10 9 -11 8 -5 -6z"/>
<path d="M2609 3013 c-13 -16 -12 -17 3 -5 9 8 23 10 29 6 8 -4 9 -3 5 4 -10
17 -21 15 -37 -5z"/>
<path d="M3047 3019 c7 -7 15 -10 18 -7 3 3 -2 9 -12 12 -14 6 -15 5 -6 -5z"/>
<path d="M2688 3009 c-6 -4 -17 -5 -23 -2 -5 3 -5 0 2 -7 10 -10 15 -11 27 -1
10 8 16 9 21 1 3 -6 11 -7 17 -4 8 5 9 1 4 -12 -4 -10 -4 -15 0 -11 4 4 13 -1
20 -11 19 -24 17 -37 -2 -21 -13 11 -17 10 -26 -4 -5 -10 -14 -14 -21 -10 -7
4 -6 -1 2 -10 13 -17 26 -15 26 4 0 5 5 8 10 7 6 -2 8 -7 6 -13 -2 -5 -6 -21
-9 -35 l-5 -25 36 28 c34 26 42 27 38 3 -1 -5 4 -4 12 3 12 9 16 9 20 -1 4
-11 6 -10 6 0 1 7 5 11 10 7 5 -3 13 0 17 7 4 7 3 10 -1 5 -9 -8 -45 20 -45
36 0 6 8 3 18 -6 16 -15 19 -15 19 -2 0 8 -6 15 -14 15 -7 0 -13 6 -13 13 0 9
-3 8 -9 -2 -7 -11 -10 -9 -16 9 -6 18 -9 20 -16 9 -14 -23 -48 -14 -49 14 0
10 23 4 32 -8 12 -15 10 7 -2 25 -9 13 -10 13 -10 0 0 -13 -1 -13 -10 0 -9 13
-10 13 -10 0 0 -10 -3 -11 -8 -4 -8 13 -36 14 -54 3z m149 -91 c13 -14 13 -16
-1 -14 -8 1 -18 5 -22 9 -4 3 -18 -3 -32 -13 -14 -11 -28 -18 -31 -15 -3 4 1
10 9 15 8 6 11 10 6 10 -5 0 -3 7 4 15 6 8 9 19 5 24 -3 7 0 8 9 5 10 -4 16
-1 16 7 0 8 5 5 12 -6 6 -11 17 -28 25 -37z"/>
<path d="M2788 2928 c-10 -10 -14 -18 -9 -18 6 0 13 5 16 10 5 8 12 7 23 -2
16 -12 16 -11 2 7 -8 11 -14 20 -15 21 0 0 -8 -8 -17 -18z"/>
<path d="M2705 2981 c6 -10 2 -12 -16 -6 -19 5 -21 4 -9 -4 13 -10 13 -11 0
-11 -12 -1 -11 -3 3 -11 9 -5 21 -8 26 -5 11 7 9 32 -4 43 -4 4 -5 2 0 -6z"/>
<path d="M2846 2978 c3 -5 10 -6 15 -3 13 9 11 12 -6 12 -8 0 -12 -4 -9 -9z"/>
<path d="M2448 2959 c12 -14 19 -29 15 -34 -5 -4 -3 -5 4 -1 6 3 14 2 18 -4 3
-5 12 -10 18 -10 7 0 4 5 -6 11 -9 6 -14 16 -11 22 4 7 3 9 -1 4 -5 -4 -20 3
-34 15 l-26 23 23 -26z"/>
<path d="M2897 2911 c-10 -14 -10 -14 4 -4 9 7 18 10 21 7 3 -3 8 -1 12 4 9
16 -24 9 -37 -7z"/>
<path d="M3330 2916 c0 -4 7 -14 15 -22 8 -9 15 -11 15 -6 0 5 -7 15 -15 22
-8 7 -15 9 -15 6z"/>
<path d="M2663 2893 c9 -2 25 -2 35 0 9 3 1 5 -18 5 -19 0 -27 -2 -17 -5z"/>
<path d="M2978 2893 c7 -3 16 -2 19 1 4 3 -2 6 -13 5 -11 0 -14 -3 -6 -6z"/>
<path d="M2406 2857 c3 -10 9 -15 12 -12 3 3 0 11 -7 18 -10 9 -11 8 -5 -6z"/>
<path d="M3096 2822 c-3 -5 1 -9 9 -9 8 0 12 4 9 9 -3 4 -7 8 -9 8 -2 0 -6 -4
-9 -8z"/>
<path d="M4092 2685 c0 -16 2 -22 5 -12 2 9 2 23 0 30 -3 6 -5 -1 -5 -18z"/>
<path d="M3256 2665 c-3 -9 -9 -14 -14 -11 -4 2 -8 -4 -8 -14 0 -10 3 -18 6
-17 6 2 10 -8 10 -25 0 -9 -4 -8 -10 2 -5 8 -10 10 -10 4 0 -6 9 -19 20 -29
11 -10 17 -22 14 -27 -4 -6 -10 -5 -15 3 -7 11 -9 11 -9 1 0 -7 -5 -10 -10 -7
-6 4 -8 10 -5 15 3 5 0 12 -6 16 -7 4 -9 3 -5 -4 3 -6 1 -14 -5 -17 -7 -5 -2
-16 14 -34 13 -14 27 -33 30 -41 6 -15 7 -10 11 38 1 9 5 22 9 29 4 6 2 15 -3
18 -8 5 -5 14 7 28 17 21 17 21 0 8 -16 -13 -18 -12 -13 13 3 15 1 24 -5 21
-13 -9 -11 9 3 23 6 6 9 14 6 17 -3 3 -8 -1 -12 -10z m-12 -130 c5 0 10 -8 12
-17 3 -23 2 -23 -27 9 -13 14 -17 22 -9 17 8 -5 19 -9 24 -9z"/>
<path d="M3182 2655 c2 -11 7 -25 11 -32 4 -6 4 -13 0 -16 -5 -2 -3 -2 4 -1 6
2 14 -2 17 -9 2 -7 5 -4 5 6 1 9 -4 17 -10 17 -5 0 -8 3 -5 8 2 4 -2 16 -10
27 -14 19 -15 19 -12 0z"/>
<path d="M3155 2630 c-4 -6 -10 -8 -15 -5 -4 3 -7 -3 -5 -12 2 -10 4 -20 4
-22 2 -10 25 20 27 34 3 17 -2 19 -11 5z"/>
<path d="M2780 2590 c-9 -6 -10 -10 -3 -10 6 0 15 5 18 10 8 12 4 12 -15 0z"/>
<path d="M3150 2580 c-13 -9 -13 -10 0 -10 13 0 13 -2 0 -9 -17 -12 -33 -4
-24 11 5 7 2 8 -5 3 -9 -5 -10 -10 -2 -18 14 -14 52 -17 44 -4 -4 7 1 8 13 3
10 -4 15 -4 11 0 -4 4 -1 14 5 23 10 13 10 14 -2 4 -17 -15 -34 -17 -25 -3 8
12 4 12 -15 0z"/>
<path d="M2649 2558 c-5 -18 -6 -38 -1 -34 7 8 12 36 6 36 -2 0 -4 -1 -5 -2z"/>
<path d="M3100 2542 c0 -7 -5 -10 -12 -6 -7 4 -8 3 -4 -5 4 -6 11 -9 16 -6 12
7 26 -17 24 -42 -1 -15 4 -23 15 -23 14 0 14 -2 1 -11 -13 -9 -12 -10 3 -5 21
7 23 -10 2 -18 -8 -3 -15 -11 -14 -18 0 -10 2 -10 6 0 2 6 9 12 14 12 6 0 5
-10 -2 -22 -12 -23 -12 -23 8 -3 14 14 17 22 9 27 -7 5 -4 8 7 8 15 0 12 5
-12 26 -17 14 -31 31 -31 37 0 8 4 7 12 -1 7 -7 17 -12 23 -12 5 0 4 4 -4 9
-13 8 -13 12 -1 28 12 15 12 16 0 6 -18 -16 -34 -17 -24 -1 4 6 3 8 -4 4 -6
-3 -15 2 -21 11 -6 11 -11 13 -11 5z"/>
<path d="M3185 2510 c-17 -8 -18 -9 -2 -11 9 -1 22 -3 27 -4 6 -1 13 -3 18 -4
4 -1 0 -7 -9 -14 -13 -10 -14 -14 -3 -25 8 -7 15 -8 19 -2 3 6 1 10 -6 10 -8
0 -9 3 0 13 16 20 -17 47 -44 37z"/>
<path d="M2826 2491 c-3 -4 3 -16 13 -25 14 -13 18 -14 18 -2 0 8 -5 14 -11
13 -6 -1 -10 4 -8 11 2 14 -4 16 -12 3z"/>
<path d="M2825 2422 c4 -4 12 -7 18 -7 7 -1 11 -6 10 -11 -1 -6 4 -11 11 -11
7 0 13 6 13 13 0 7 -3 13 -6 12 -3 0 -8 1 -11 2 -16 6 -41 7 -35 2z"/>
<path d="M2825 2391 c-3 -5 -2 -12 3 -15 5 -3 9 1 9 9 0 17 -3 19 -12 6z"/>
<path d="M2889 2383 c-13 -16 -12 -17 4 -4 16 13 21 21 13 21 -2 0 -10 -8 -17
-17z"/>
<path d="M2820 2351 c0 -6 4 -13 10 -16 6 -3 7 1 4 9 -7 18 -14 21 -14 7z"/>
<path d="M3140 2300 c8 -5 20 -10 25 -10 6 0 3 5 -5 10 -8 5 -19 10 -25 10 -5
0 -3 -5 5 -10z"/>
<path d="M4025 1821 c-3 -12 -10 -19 -14 -17 -4 3 -7 -4 -7 -14 0 -10 6 -16
13 -13 7 3 12 8 11 11 -1 4 2 15 7 25 4 10 5 20 2 23 -3 3 -8 -4 -12 -15z"/>
<path d="M851 1723 c-1 -17 16 -25 25 -12 4 7 3 9 -4 5 -5 -3 -13 0 -15 6 -4
9 -6 10 -6 1z"/>
<path d="M920 1620 c0 -5 5 -10 11 -10 5 0 7 5 4 10 -3 6 -8 10 -11 10 -2 0
-4 -4 -4 -10z"/>
<path d="M3981 1576 c-9 -11 -9 -16 1 -22 7 -4 10 -4 6 1 -4 4 -3 14 3 22 6 7
9 13 6 13 -2 0 -10 -6 -16 -14z"/>
<path d="M1026 1447 c3 -10 9 -15 12 -12 3 3 0 11 -7 18 -10 9 -11 8 -5 -6z"/>
<path d="M1057 1389 c7 -7 15 -10 18 -7 3 3 -2 9 -12 12 -14 6 -15 5 -6 -5z"/>
<path d="M1100 1350 c0 -5 5 -10 11 -10 5 0 7 5 4 10 -3 6 -8 10 -11 10 -2 0
-4 -4 -4 -10z"/>
<path d="M3540 1146 c7 -7 13 -7 20 0 6 6 3 10 -10 10 -13 0 -16 -4 -10 -10z"/>
<path d="M3633 1125 c0 -8 4 -12 9 -9 5 3 6 10 3 15 -9 13 -12 11 -12 -6z"/>
<path d="M1320 1100 c0 -5 5 -10 11 -10 5 0 7 5 4 10 -3 6 -8 10 -11 10 -2 0
-4 -4 -4 -10z"/>
<path d="M3447 1059 c7 -7 15 -10 18 -7 3 3 -2 9 -12 12 -14 6 -15 5 -6 -5z"/>
<path d="M3499 1013 c-13 -16 -12 -17 4 -4 9 7 17 15 17 17 0 8 -8 3 -21 -13z"/>
<path d="M3436 963 c-6 -14 -5 -15 5 -6 7 7 10 15 7 18 -3 3 -9 -2 -12 -12z"/>
<path d="M3370 930 c-8 -5 -12 -11 -9 -14 2 -3 11 -1 19 4 8 5 12 11 9 14 -2
3 -11 1 -19 -4z"/>
<path d="M3326 902 c-3 -5 1 -9 9 -9 8 0 15 4 15 9 0 4 -4 8 -9 8 -6 0 -12 -4
-15 -8z"/>
<path d="M3255 859 c-4 -6 -5 -12 -2 -15 2 -3 7 2 10 11 7 17 1 20 -8 4z"/>
<path d="M3035 829 c-4 -6 -5 -12 -2 -15 2 -3 7 2 10 11 7 17 1 20 -8 4z"/>
<path d="M2157 749 c7 -7 15 -10 18 -7 3 3 -2 9 -12 12 -14 6 -15 5 -6 -5z"/>
</g>
</svg>
